HIERARCHY
ROOT Root
{
  OFFSET 0.0 0.0 0.0
  CHANNELS 6 Xposition Yposition Zposition Zrotation Yrotation Xrotation
  JOINT Hips
  {
    OFFSET 0.0 100.0 0.0
    CHANNELS 6 Xposition Yposition Zposition Zrotation Yrotation Xrotation
    JOINT Spine1
    {
      OFFSET -0.013727 5.003763 -0.053727
      CHANNELS 3 Zrotation Yrotation Xrotation
      JOINT Spine2
      {
        OFFSET -0.0 7.125301 -0.029825
        CHANNELS 3 Zrotation Yrotation Xrotation
        JOINT Chest
        {
          OFFSET -1e-06 7.550063 -0.815971
          CHANNELS 3 Zrotation Yrotation Xrotation
          JOINT Neck1
          {
            OFFSET -0.181677 26.311295 -0.553348
            CHANNELS 3 Zrotation Yrotation Xrotation
            JOINT Neck2
            {
              OFFSET -3e-06 7.709397 2.302585
              CHANNELS 3 Zrotation Yrotation Xrotation
              JOINT Head
              {
                OFFSET -5e-06 6.128916 1.953709
                CHANNELS 3 Zrotation Yrotation Xrotation
                JOINT HeadEnd
                {
                  OFFSET 0.003598 16.065403 -1.835379
                  CHANNELS 3 Zrotation Yrotation Xrotation
                }
                JOINT Jaw
                {
                  OFFSET 0.002637 0.475592 3.094941
                  CHANNELS 3 Zrotation Yrotation Xrotation
                }
                JOINT LeftEye
                {
                  OFFSET 3.206381 5.380205 7.586883
                  CHANNELS 3 Zrotation Yrotation Xrotation
                }
                JOINT RightEye
                {
                  OFFSET -3.22244 5.361869 7.558234
                  CHANNELS 3 Zrotation Yrotation Xrotation
                }
              }
            }
          }
          JOINT LeftShoulder
          {
            OFFSET 1.621652 23.237164 5.113413
            CHANNELS 3 Zrotation Yrotation Xrotation
            JOINT LeftArm
            {
              OFFSET 14.919846 2e-06 -5.502326
              CHANNELS 3 Zrotation Yrotation Xrotation
              JOINT LeftForeArm
              {
                OFFSET 28.739307 0.0 -0.002588
                CHANNELS 3 Zrotation Yrotation Xrotation
                JOINT LeftHand
                {
                  OFFSET 27.093981 -1e-06 0.002609
                  CHANNELS 3 Zrotation Yrotation Xrotation
                  JOINT LeftHandThumb1
                  {
                    OFFSET 2.276482 -1.392045 3.191413
                    CHANNELS 3 Zrotation Yrotation Xrotation
                    JOINT LeftHandThumb2
                    {
                      OFFSET 4.012836 -1.828127 1.641654
                      CHANNELS 3 Zrotation Yrotation Xrotation
                      JOINT LeftHandThumb3
                      {
                        OFFSET 2.798515 0.0 -3e-06
                        CHANNELS 3 Zrotation Yrotation Xrotation
                        JOINT LeftHandThumbEnd
                        {
                          OFFSET 3.180793 -4e-06 4e-06
                          CHANNELS 3 Zrotation Yrotation Xrotation
                        }
                      }
                    }
                  }
                  JOINT LeftHandIndex1
                  {
                    OFFSET 3.247555 -0.531998 2.296169
                    CHANNELS 3 Zrotation Yrotation Xrotation
                    JOINT LeftHandIndex2
                    {
                      OFFSET 6.364578 0.01206 0.1786
                      CHANNELS 3 Zrotation Yrotation Xrotation
                      JOINT LeftHandIndex3
                      {
                        OFFSET 3.662364 0.0 0.0
                        CHANNELS 3 Zrotation Yrotation Xrotation
                        JOINT LeftHandIndex4
                        {
                          OFFSET 2.329242 4e-06 4e-06
                          CHANNELS 3 Zrotation Yrotation Xrotation
                          JOINT LeftHandIndexEnd
                          {
                            OFFSET 2.759615 -0.180537 -0.113024
                            CHANNELS 3 Zrotation Yrotation Xrotation
                          }
                        }
                      }
                    }
                  }
                  JOINT LeftHandMiddle1
                  {
                    OFFSET 3.163495 0.240981 1.000332
                    CHANNELS 3 Zrotation Yrotation Xrotation
                    JOINT LeftHandMiddle2
                    {
                      OFFSET 6.19078 -0.259278 -1.002548
                      CHANNELS 3 Zrotation Yrotation Xrotation
                      JOINT LeftHandMiddle3
                      {
                        OFFSET 4.35652 -4e-06 -1e-06
                        CHANNELS 3 Zrotation Yrotation Xrotation
                        JOINT LeftHandMiddle4
                        {
                          OFFSET 2.996877 -8e-06 0.0
                          CHANNELS 3 Zrotation Yrotation Xrotation
                          JOINT LeftHandMiddleEnd
                          {
                            OFFSET 2.304287 -0.294569 -0.031741
                            CHANNELS 3 Zrotation Yrotation Xrotation
                          }
                        }
                      }
                    }
                  }
                  JOINT LeftHandRing1
                  {
                    OFFSET 2.882643 -0.053652 -0.322543
                    CHANNELS 3 Zrotation Yrotation Xrotation
                    JOINT LeftHandRing2
                    {
                      OFFSET 5.854541 -0.486202 -1.373841
                      CHANNELS 3 Zrotation Yrotation Xrotation
                      JOINT LeftHandRing3
                      {
                        OFFSET 4.350578 0.0 3e-06
                        CHANNELS 3 Zrotation Yrotation Xrotation
                        JOINT LeftHandRing4
                        {
                          OFFSET 2.651321 7e-06 2e-06
                          CHANNELS 3 Zrotation Yrotation Xrotation
                          JOINT LeftHandRingEnd
                          {
                            OFFSET 1.936105 0.077687 -7.1e-05
                            CHANNELS 3 Zrotation Yrotation Xrotation
                          }
                        }
                      }
                    }
                  }
                  JOINT LeftHandPinky1
                  {
                    OFFSET 2.8655 -0.310005 -1.600378
                    CHANNELS 3 Zrotation Yrotation Xrotation
                    JOINT LeftHandPinky2
                    {
                      OFFSET 5.087849 -1.331141 -1.77123
                      CHANNELS 3 Zrotation Yrotation Xrotation
                      JOINT LeftHandPinky3
                      {
                        OFFSET 3.070974 4e-06 0.0
                        CHANNELS 3 Zrotation Yrotation Xrotation
                        JOINT LeftHandPinky4
                        {
                          OFFSET 1.549672 0.0 1e-06
                          CHANNELS 3 Zrotation Yrotation Xrotation
                          JOINT LeftHandPinkyEnd
                          {
                            OFFSET 1.944893 -0.157802 0.057219
                            CHANNELS 3 Zrotation Yrotation Xrotation
                          }
                        }
                      }
                    }
                  }
                }
              }
            }
          }
          JOINT RightShoulder
          {
            OFFSET -1.380118 23.180309 5.214158
            CHANNELS 3 Zrotation Yrotation Xrotation
            JOINT RightArm
            {
              OFFSET -15.037196 1.2e-05 -5.545604
              CHANNELS 3 Zrotation Yrotation Xrotation
              JOINT RightForeArm
              {
                OFFSET -28.736639 2e-06 -0.002597
                CHANNELS 3 Zrotation Yrotation Xrotation
                JOINT RightHand
                {
                  OFFSET -27.133619 -0.0 0.002613
                  CHANNELS 3 Zrotation Yrotation Xrotation
                  JOINT RightHandThumb1
                  {
                    OFFSET -2.274032 -1.383988 3.163127
                    CHANNELS 3 Zrotation Yrotation Xrotation
                    JOINT RightHandThumb2
                    {
                      OFFSET -4.011429 -1.827466 1.640914
                      CHANNELS 3 Zrotation Yrotation Xrotation
                      JOINT RightHandThumb3
                      {
                        OFFSET -2.794935 -4e-06 -3e-06
                        CHANNELS 3 Zrotation Yrotation Xrotation
                        JOINT RightHandThumbEnd
                        {
                          OFFSET -3.183852 4e-06 1e-06
                          CHANNELS 3 Zrotation Yrotation Xrotation
                        }
                      }
                    }
                  }
                  JOINT RightHandIndex1
                  {
                    OFFSET -3.253266 -0.520057 2.282866
                    CHANNELS 3 Zrotation Yrotation Xrotation
                    JOINT RightHandIndex2
                    {
                      OFFSET -6.341917 0.012471 0.178266
                      CHANNELS 3 Zrotation Yrotation Xrotation
                      JOINT RightHandIndex3
                      {
                        OFFSET -3.654871 -8e-06 -0.0
                        CHANNELS 3 Zrotation Yrotation Xrotation
                        JOINT RightHandIndex4
                        {
                          OFFSET -2.327586 0.0 1e-06
                          CHANNELS 3 Zrotation Yrotation Xrotation
                          JOINT RightHandIndexEnd
                          {
                            OFFSET -2.76179 -0.180656 -0.113078
                            CHANNELS 3 Zrotation Yrotation Xrotation
                          }
                        }
                      }
                    }
                  }
                  JOINT RightHandMiddle1
                  {
                    OFFSET -3.168106 0.246593 1.00103
                    CHANNELS 3 Zrotation Yrotation Xrotation
                    JOINT RightHandMiddle2
                    {
                      OFFSET -6.180828 -0.258836 -1.000895
                      CHANNELS 3 Zrotation Yrotation Xrotation
                      JOINT RightHandMiddle3
                      {
                        OFFSET -4.348901 0.0 -0.0
                        CHANNELS 3 Zrotation Yrotation Xrotation
                        JOINT RightHandMiddle4
                        {
                          OFFSET -3.00024 -4e-06 -2e-06
                          CHANNELS 3 Zrotation Yrotation Xrotation
                          JOINT RightHandMiddleEnd
                          {
                            OFFSET -2.30252 -0.29437 -0.031706
                            CHANNELS 3 Zrotation Yrotation Xrotation
                          }
                        }
                      }
                    }
                  }
                  JOINT RightHandRing1
                  {
                    OFFSET -2.88569 -0.067952 -0.308858
                    CHANNELS 3 Zrotation Yrotation Xrotation
                    JOINT RightHandRing2
                    {
                      OFFSET -5.854198 -0.48613 -1.373731
                      CHANNELS 3 Zrotation Yrotation Xrotation
                      JOINT RightHandRing3
                      {
                        OFFSET -4.33881 -4e-06 -0.0
                        CHANNELS 3 Zrotation Yrotation Xrotation
                        JOINT RightHandRing4
                        {
                          OFFSET -2.654903 -4e-06 4e-06
                          CHANNELS 3 Zrotation Yrotation Xrotation
                          JOINT RightHandRingEnd
                          {
                            OFFSET -1.933568 0.077527 -5.2e-05
                            CHANNELS 3 Zrotation Yrotation Xrotation
                          }
                        }
                      }
                    }
                  }
                  JOINT RightHandPinky1
                  {
                    OFFSET -2.866425 -0.342796 -1.584145
                    CHANNELS 3 Zrotation Yrotation Xrotation
                    JOINT RightHandPinky2
                    {
                      OFFSET -5.091371 -1.332055 -1.772385
                      CHANNELS 3 Zrotation Yrotation Xrotation
                      JOINT RightHandPinky3
                      {
                        OFFSET -3.062664 -4e-06 1e-06
                        CHANNELS 3 Zrotation Yrotation Xrotation
                        JOINT RightHandPinky4
                        {
                          OFFSET -1.546529 4e-06 -2e-06
                          CHANNELS 3 Zrotation Yrotation Xrotation
                          JOINT RightHandPinkyEnd
                          {
                            OFFSET -1.945119 -0.157718 0.057211
                            CHANNELS 3 Zrotation Yrotation Xrotation
                          }
                        }
                      }
                    }
                  }
                }
              }
            }
          }
        }
      }
    }
    JOINT LeftLeg
    {
      OFFSET 10.043214 -8.434526 2.595655
      CHANNELS 3 Zrotation Yrotation Xrotation
      JOINT LeftShin
      {
        OFFSET -1e-06 -43.221752 -0.802913
        CHANNELS 3 Zrotation Yrotation Xrotation
        JOINT LeftFoot
        {
          OFFSET 1e-06 -42.155094 -3.481523
          CHANNELS 3 Zrotation Yrotation Xrotation
          JOINT LeftToeBase
          {
            OFFSET 0.0 -5.059472 13.231529
            CHANNELS 3 Zrotation Yrotation Xrotation
            JOINT LeftToeEnd
            {
              OFFSET -0.009607 -1.647619 6.513017
              CHANNELS 3 Zrotation Yrotation Xrotation
            }
          }
        }
      }
    }
    JOINT RightLeg
    {
      OFFSET -10.047278 -8.29526 2.620317
      CHANNELS 3 Zrotation Yrotation Xrotation
      JOINT RightShin
      {
        OFFSET 1e-06 -43.362206 -0.805556
        CHANNELS 3 Zrotation Yrotation Xrotation
        JOINT RightFoot
        {
          OFFSET 2e-06 -42.117393 -3.478398
          CHANNELS 3 Zrotation Yrotation Xrotation
          JOINT RightToeBase
          {
            OFFSET -0.0 -5.079609 13.284196
            CHANNELS 3 Zrotation Yrotation Xrotation
            JOINT RightToeEnd
            {
              OFFSET 0.009532 -1.634378 6.460591
              CHANNELS 3 Zrotation Yrotation Xrotation
            }
          }
        }
      }
    }
  }
}
MOTION
Frames: 4
Frame Time: 0.03333333333333333
0.0 0.0 0.0 0.0 -0.0 0.0 0.21623 96.059486 -1.965801 -1.18423 -0.153779 -2.527124 2.078377 0.285118 2.304535 -0.110891 0.920023 -3.784136 0.583633 -1.551822 10.187484 -3.577358 4.596735 10.866372 -1.339976 -0.799822 -3.600664 2.555133 -3.524368 -8.5389 7.7e-05 -2.2e-05 6e-06 0.015389 -0.069016 0.037349 0.705203 -3.822448 -10.604267 -0.676402 3.690682 -10.671077 -17.135895 -2.509806 10.812721 -47.804123 -1.228333 11.803871 0.742726 -52.466732 -0.0199 -10.939306 14.834254 -13.158312 -5.882108 9.86129 0.702591 -10.936875 -0.360574 7.156207 0.0 8.774828 -0.0 -16.240362 17.672211 5.983504 -1.844033 2.498505 -2.507277 -10.163604 4.678947 4.621109 -20.97603 -3e-06 3e-06 -21.22629 2.451699 -3.594 0.0 -5e-06 1e-06 -1.362682 2.240798 -0.746322 -21.334921 0.58491 3.008323 -13.821218 -2e-06 1e-06 -23.887175 -0.249079 -0.839485 -60.773869 2.754559 -1.306054 -0.294025 1.679688 0.833256 -14.218215 0.093215 1.300583 -34.212063 -0.287562 0.967171 -20.03322 0.964538 1.212843 -1e-06 -0.0 -1e-06 -3.44039 0.788234 0.501656 -15.928191 -3.16731 2.999707 -6.338829 -1e-06 2e-06 -18.123447 3.648185 -4.90567 -2e-06 0.0 -1e-06 11.34195 10.416404 15.218898 50.342793 3.802173 26.184198 0.874727 32.952141 0.175191 4.728544 -5.634054 -23.246901 2.243543 -5.255039 -3.18016 14.282898 -0.826595 6.952505 -3e-06 -12.690611 3e-06 16.053263 -17.417299 2.219388 1.665668 -1.955922 -2.8783 4.727801 -4.170589 4.993926 11.020534 3e-06 -3e-06 12.109058 -3.735716 -2.866787 0.0 -0.0 0.0 1.291987 -1.928551 -1.498091 14.800136 0.567468 3.865608 14.242582 -1.341736 -6.660663 19.631979 0.143928 -0.648246 48.959858 -0.417079 -6.383296 0.353029 -1.511151 -0.031941 20.222803 3.684311 2.316629 18.787287 5e-06 -4e-06 10.751635 -0.479869 1.397907 -1e-06 -1e-06 -0.0 3.273809 0.305947 -0.58011 21.486828 11.830381 2.266132 8.16293 2e-06 -0.0 18.399088 -3.798985 -4.940578 1e-06 1e-06 -1e-06 17.640537 4.034154 -15.713672 -0.31566 -0.678602 34.002422 -0.368959 -0.538772 -7.906211 1.716103 -1.912758 -4.345272 0.0 -0.0 2e-06 -14.335156 -22.999849 -3.954629 0.097655 0.352583 23.333452 14.364465 5.760306 -10.448501 -1.411037 0.992784 -1.553815 0.0 0.0 -1e-06 
0.0 0.0 0.0 0.0 -0.0 0.0 1.900676 95.105301 -1.815888 -1.276417 0.677772 -2.42559 1.795181 0.259184 2.359684 -0.160972 0.938237 -3.736458 0.29111 -1.640754 9.892779 -3.457583 4.591126 10.282688 -1.027912 -0.72025 -3.627637 2.388023 -3.02045 -8.715228 7.7e-05 -2.3e-05 6e-06 0.00726 -0.056346 0.032308 0.715761 -3.809677 -10.610811 -0.704253 3.701963 -10.674816 -17.391663 -2.800097 10.966402 -46.103046 -1.819559 10.279239 0.281013 -51.576649 0.256118 -11.18311 14.976539 -14.168962 -5.882109 9.861293 0.70259 -10.936872 -0.360575 7.156206 -1e-06 8.77483 -1e-06 -16.19692 17.75737 5.937106 -1.844033 2.498506 -2.507277 -10.163602 4.678948 4.621109 -20.976023 -2e-06 0.0 -21.22629 2.451698 -3.594004 -0.0 -6e-06 -1e-06 -1.362682 2.240799 -0.746323 -21.334917 0.58491 3.008323 -13.821216 -2e-06 1e-06 -23.887173 -0.249077 -0.839486 -60.715015 2.696244 -1.491497 -0.294025 1.679688 0.833257 -14.218211 0.093217 1.300581 -34.212048 -0.287563 0.967166 -20.033216 0.964537 1.212841 1e-06 -0.0 -1e-06 -3.440389 0.788233 0.501655 -15.928187 -3.167311 2.999707 -6.338827 -1e-06 1e-06 -18.123447 3.648187 -4.905676 -2e-06 1e-06 -2e-06 10.760704 10.349174 15.118228 51.101109 3.512749 27.252954 0.734086 33.240437 0.242381 5.735322 -5.35168 -24.140041 2.243542 -5.255038 -3.180159 14.28289 -0.826596 6.952503 -0.0 -12.690606 -0.0 16.191578 -17.415777 2.178737 1.665667 -1.955922 -2.8783 4.727799 -4.170588 4.993924 11.020528 2e-06 -2e-06 12.109056 -3.735717 -2.866785 0.0 -1e-06 -0.0 1.291986 -1.92855 -1.49809 14.800129 0.567467 3.865606 14.242573 -1.341739 -6.660659 19.631969 0.143926 -0.648247 49.166458 -0.365137 -6.344041 0.353029 -1.511151 -0.031939 20.222794 3.684309 2.316631 18.787273 4e-06 -4e-06 10.751631 -0.479868 1.397906 -1e-06 -1e-06 1e-06 3.273807 0.305947 -0.580111 21.486813 11.830374 2.266135 8.16293 1e-06 -0.0 18.399086 -3.798987 -4.940576 3e-06 -0.0 -1e-06 20.153973 4.753756 -16.126606 -0.302858 -0.720085 31.024727 -0.105083 2.245956 -8.950564 1.741588 -1.840668 -4.35572 1e-06 -0.0 2e-06 -15.801815 -24.163441 -4.960551 0.170431 0.497597 26.203165 15.296713 6.010875 -11.447332 -1.423668 1.015011 -0.871392 0.0 0.0 -1e-06 
0.0 0.0 0.0 0.0 -0.0 0.0 5.187875 94.051086 -1.47902 -1.512754 1.987515 -2.386679 1.385096 0.244152 2.361598 -0.237541 0.728723 -3.656384 0.163472 -1.740236 9.585958 -3.047443 4.266428 9.708511 -0.624132 -0.474925 -3.677407 2.079033 -2.146427 -8.605549 7.7e-05 -2.3e-05 6e-06 0.007546 -0.083014 0.041759 0.738449 -3.836059 -10.622527 -0.72728 3.67484 -10.678436 -17.45899 -3.367303 11.260376 -44.279705 -2.34035 9.728597 0.4906 -50.643085 0.165409 -12.221934 15.279221 -15.705303 -5.882105 9.861284 0.702591 -10.93687 -0.360574 7.156204 -0.0 8.774823 -1e-06 -16.118042 17.957361 5.880069 -1.844032 2.498503 -2.507277 -10.163597 4.678944 4.621109 -20.976017 -3e-06 4e-06 -21.226282 2.451697 -3.593998 -0.0 -6e-06 0.0 -1.362681 2.240798 -0.746324 -21.334906 0.58491 3.008322 -13.821209 -2e-06 2e-06 -23.887165 -0.249078 -0.839482 -60.688908 2.716131 -1.750087 -0.294025 1.679688 0.833256 -14.218205 0.093215 1.30058 -34.212036 -0.287563 0.967169 -20.033209 0.964536 1.212843 0.0 -1e-06 -2e-06 -3.440388 0.788233 0.501655 -15.928183 -3.16731 2.999706 -6.338824 -1e-06 1e-06 -18.123444 3.648183 -4.905668 -2e-06 1e-06 -1e-06 10.541779 10.112411 15.12929 51.805866 3.233776 27.992023 0.498331 33.310596 0.101464 6.613215 -4.892536 -24.956486 2.243542 -5.255036 -3.180157 14.282894 -0.826595 6.952502 -4e-06 -12.690601 3e-06 16.371204 -17.573256 2.256615 1.665666 -1.955921 -2.878299 4.727799 -4.170587 4.993925 11.020528 3e-06 -2e-06 12.109053 -3.735715 -2.866783 0.0 -1e-06 -1e-06 1.291986 -1.928549 -1.498088 14.800131 0.567468 3.865607 14.242576 -1.341735 -6.660656 19.631971 0.143926 -0.648245 49.546165 -0.346403 -6.284311 0.353029 -1.51115 -0.03194 20.222797 3.684309 2.316631 18.787273 5e-06 -2e-06 10.751629 -0.479869 1.397905 -2e-06 -0.0 0.0 3.273807 0.305947 -0.580111 21.486816 11.830374 2.266132 8.16293 2e-06 1e-06 18.399088 -3.798984 -4.940575 3e-06 -1e-06 -1e-06 21.711094 7.857839 -17.566582 -0.257791 -0.606359 29.733627 0.083889 3.539887 -11.136843 1.757443 -1.746114 -4.541648 0.0 1e-06 2e-06 -18.445736 -25.419128 -4.789644 0.207212 0.593106 27.620941 18.189413 6.18748 -10.528696 -1.431714 1.006835 -0.087019 -0.0 0.0 -1e-06 
0.0 0.0 0.0 0.0 -0.0 0.0 9.011922 93.286713 -0.953225 -1.896335 3.673554 -2.320869 0.908246 0.211722 2.223824 -0.257154 0.379432 -3.559613 0.156951 -1.878413 9.407508 -2.432807 3.700989 8.895638 -0.422429 0.012076 -3.693719 1.985877 -1.417138 -8.192483 7.7e-05 -2.2e-05 6e-06 0.013031 -0.129854 0.028406 0.749981 -3.878602 -10.643541 -0.728063 3.625135 -10.70141 -17.755556 -4.129575 11.502686 -42.344116 -2.840497 9.597915 0.743614 -49.480347 -0.023745 -13.140669 15.453459 -16.845488 -5.882106 9.861285 0.702591 -10.936872 -0.360574 7.156207 0.0 8.774825 0.0 -16.138311 17.998777 5.816681 -1.844032 2.498505 -2.507277 -10.163601 4.678945 4.62111 -20.976023 -3e-06 4e-06 -21.226288 2.451697 -3.593999 -0.0 -6e-06 -0.0 -1.362681 2.240797 -0.746323 -21.334913 0.584911 3.008325 -13.821214 -2e-06 2e-06 -23.887167 -0.249078 -0.839483 -60.729877 2.697012 -1.791651 -0.294025 1.679687 0.833256 -14.218209 0.093216 1.300582 -34.212048 -0.287562 0.967173 -20.033211 0.964537 1.212845 -1e-06 -0.0 -2e-06 -3.440388 0.788232 0.501655 -15.928185 -3.16731 2.999709 -6.338826 -1e-06 3e-06 -18.123444 3.648183 -4.905669 -3e-06 1e-06 -1e-06 11.163903 9.574776 14.972789 52.046486 2.92225 27.963108 0.190555 32.637051 -0.114029 6.961794 -4.680243 -25.881174 2.243541 -5.255036 -3.180158 14.282887 -0.826594 6.952503 -3e-06 -12.690602 1e-06 16.510717 -17.785746 2.370041 1.665666 -1.955921 -2.878298 4.727798 -4.170586 4.993921 11.020523 4e-06 -2e-06 12.109052 -3.735714 -2.866783 0.0 -1e-06 -1e-06 1.291985 -1.928549 -1.498089 14.800125 0.567469 3.865604 14.242568 -1.341735 -6.660655 19.631958 0.143927 -0.648244 50.06477 -0.372114 -6.223902 0.353029 -1.51115 -0.031939 20.222786 3.68431 2.316629 18.78727 5e-06 -1e-06 10.751627 -0.479868 1.397906 -1e-06 -1e-06 0.0 3.273806 0.305947 -0.580111 21.486809 11.830374 2.266131 8.162926 2e-06 1e-06 18.399078 -3.798982 -4.940574 3e-06 -0.0 -1e-06 21.426458 12.921644 -20.103857 -0.371261 -0.608495 30.734364 -2.492759 1.456275 -11.621526 1.771097 -1.715159 -4.776004 1e-06 0.0 2e-06 -21.284977 -26.533438 -2.885508 0.201531 0.617102 26.135824 22.118999 5.948421 -7.959349 -1.444275 1.025328 0.015852 -0.0 1e-06 -1e-06 
